<svg width="232" height="181" viewBox="0 0 232 181" fill="none" xmlns="http://www.w3.org/2000/svg">
<g clip-path="url(#clip0_20_1354)">
<path d="M196.455 0.144592H0.119934V105.072H196.455V0.144592Z" fill="#E6E6E6"/>
<path d="M196.335 0H0V10.8447H196.335V0Z" fill="#6C63FF"/>
<path d="M191.732 14.1757H4.52756V99.8513H191.732V14.1757Z" fill="white"/>
<path d="M18.605 7.18856C19.6968 7.18856 20.5819 6.38539 20.5819 5.39464C20.5819 4.40388 19.6968 3.60071 18.605 3.60071C17.5131 3.60071 16.628 4.40388 16.628 5.39464C16.628 6.38539 17.5131 7.18856 18.605 7.18856Z" fill="white"/>
<path d="M26.1091 7.18856C27.2009 7.18856 28.086 6.38539 28.086 5.39464C28.086 4.40388 27.2009 3.60071 26.1091 3.60071C25.0172 3.60071 24.1321 4.40388 24.1321 5.39464C24.1321 6.38539 25.0172 7.18856 26.1091 7.18856Z" fill="white"/>
<path d="M11.0814 7.18856C12.1732 7.18856 13.0583 6.38539 13.0583 5.39464C13.0583 4.40388 12.1732 3.60071 11.0814 3.60071C9.98954 3.60071 9.10443 4.40388 9.10443 5.39464C9.10443 6.38539 9.98954 7.18856 11.0814 7.18856Z" fill="white"/>
<path d="M169.899 28.9708H26.3612V32.3727H169.899V28.9708Z" fill="#E6E6E6"/>
<path d="M123.719 37.4755H72.541V40.8775H123.719V37.4755Z" fill="#E6E6E6"/>
<path d="M123.719 54.727H72.541V58.1289H123.719V54.727Z" fill="#E6E6E6"/>
<path d="M123.719 63.563H72.541V66.965H123.719V63.563Z" fill="#E6E6E6"/>
<path d="M149.108 45.9803H47.152V49.3822H149.108V45.9803Z" fill="#E6E6E6"/>
<path d="M169.899 79.015H142.971V85.0563H169.899V79.015Z" fill="#6C63FF"/>
<path d="M195.954 177.19L191.432 177.189L189.28 161.361L195.955 161.361L195.954 177.19Z" fill="#9F616A"/>
<path d="M188.202 176.017H196.923V181H182.71C182.71 179.678 183.289 178.411 184.319 177.476C185.349 176.542 186.745 176.017 188.202 176.017Z" fill="#2F2E41"/>
<path d="M212.922 177.19L208.4 177.189L206.248 161.361L212.923 161.361L212.922 177.19Z" fill="#9F616A"/>
<path d="M205.17 176.017H213.891V181H199.678C199.678 180.345 199.82 179.697 200.096 179.093C200.372 178.488 200.777 177.939 201.287 177.476C201.797 177.013 202.402 176.646 203.068 176.396C203.734 176.146 204.448 176.017 205.17 176.017Z" fill="#2F2E41"/>
<path d="M212.37 130.048C211.883 129.763 211.47 129.386 211.161 128.941C210.852 128.496 210.655 127.995 210.582 127.474C210.509 126.952 210.564 126.423 210.741 125.922C210.919 125.422 211.215 124.963 211.609 124.577L208.631 86.2325L217.209 86.9874L217.444 124.539C218.114 125.182 218.5 126.026 218.529 126.911C218.558 127.796 218.229 128.659 217.604 129.339C216.978 130.018 216.1 130.465 215.135 130.596C214.171 130.726 213.187 130.531 212.37 130.048L212.37 130.048Z" fill="#9F616A"/>
<path d="M195.74 169.215L190.762 169C190.338 168.982 189.938 168.817 189.644 168.539C189.35 168.261 189.184 167.891 189.181 167.506L188.834 121.798C188.832 121.581 188.882 121.366 188.98 121.168C189.079 120.971 189.223 120.794 189.403 120.652C189.583 120.509 189.795 120.404 190.025 120.342C190.254 120.281 190.495 120.265 190.732 120.297L210.649 122.92C211.042 122.97 211.403 123.147 211.664 123.419C211.925 123.691 212.069 124.039 212.07 124.399L214.632 166.753C214.633 166.952 214.592 167.149 214.509 167.333C214.426 167.517 214.304 167.684 214.15 167.826C213.996 167.967 213.812 168.079 213.61 168.155C213.408 168.231 213.191 168.271 212.972 168.271H207.605C207.209 168.272 206.825 168.145 206.524 167.911C206.223 167.678 206.025 167.354 205.965 166.999C205.965 166.999 201.911 135.23 201.354 135.248C200.795 135.258 197.468 167.89 197.468 167.89C197.418 168.255 197.223 168.592 196.92 168.836C196.616 169.081 196.225 169.216 195.819 169.217C195.793 169.217 195.767 169.217 195.74 169.215Z" fill="#2F2E41"/>
<path d="M210.573 99.117C210.372 98.9859 210.206 98.8156 210.088 98.6186C209.969 98.4215 209.9 98.2029 209.887 97.9787L209.259 87.6438C209.197 86.6199 209.554 85.6113 210.263 84.8126C210.972 84.0139 211.981 83.4816 213.097 83.3183C214.213 83.155 215.356 83.3723 216.305 83.9283C217.255 84.4843 217.944 85.3397 218.239 86.3294L221 95.5694C221.115 95.9549 221.056 96.366 220.838 96.7124C220.619 97.0588 220.257 97.3123 219.833 97.4173L211.979 99.3495C211.741 99.4086 211.49 99.4185 211.247 99.3782C211.004 99.338 210.773 99.2487 210.573 99.117Z" fill="#3F3D56"/>
<path d="M203.237 74.5548C208.24 74.5548 212.297 70.8741 212.297 66.3337C212.297 61.7933 208.24 58.1126 203.237 58.1126C198.233 58.1126 194.177 61.7933 194.177 66.3337C194.177 70.8741 198.233 74.5548 203.237 74.5548Z" fill="#9F616A"/>
<path d="M170.406 82.4856C170.452 82.6662 170.481 82.8497 170.495 83.0346L186.34 91.3296L190.192 89.3176L194.298 94.1953L186.058 99.5242L167.981 86.583C167.243 86.8306 166.44 86.8686 165.679 86.692C164.917 86.5155 164.233 86.1326 163.717 85.5945C163.2 85.0564 162.877 84.3884 162.79 83.6794C162.702 82.9705 162.854 82.2542 163.226 81.6257C163.598 80.9972 164.173 80.4865 164.872 80.1613C165.572 79.8361 166.364 79.7119 167.144 79.8052C167.923 79.8986 168.653 80.205 169.235 80.6838C169.818 81.1626 170.227 81.7911 170.406 82.4856V82.4856Z" fill="#9F616A"/>
<path d="M186.906 90.6242C186.88 90.401 186.909 90.1753 186.991 89.9636C187.074 89.752 187.208 89.5598 187.383 89.4014L195.448 82.0815C196.247 81.3564 197.313 80.9254 198.442 80.8716C199.571 80.8178 200.681 81.145 201.559 81.7902C202.438 82.4354 203.022 83.3529 203.199 84.3657C203.376 85.3785 203.134 86.4149 202.518 87.2751L196.775 95.3058C196.535 95.6406 196.159 95.8753 195.728 95.9584C195.298 96.0416 194.848 95.9664 194.479 95.7494L187.653 91.7299C187.446 91.608 187.271 91.4455 187.141 91.2541C187.012 91.0628 186.932 90.8475 186.906 90.6242Z" fill="#3F3D56"/>
<path d="M209.648 72.8379C207.958 74.4716 204.819 73.5946 204.599 71.3627C204.582 71.1894 204.583 71.015 204.603 70.842C204.716 69.8534 205.346 68.9558 205.195 67.912C205.161 67.6522 205.054 67.4046 204.885 67.1927C203.538 65.5561 200.377 67.9247 199.106 66.4432C198.326 65.5347 199.242 64.1044 198.644 63.0891C197.855 61.749 195.517 62.4101 194.05 61.6762C192.419 60.8596 192.517 58.5883 193.59 57.2067C194.9 55.5219 197.196 54.6229 199.464 54.4933C201.732 54.3637 203.984 54.92 206.101 55.6686C208.506 56.5193 210.892 57.6949 212.372 59.6142C214.172 61.9482 214.345 65.0862 213.445 67.8154C212.897 69.4757 211.028 71.5038 209.648 72.8379Z" fill="#2F2E41"/>
<path d="M231.631 180.938H160.44C160.342 180.938 160.248 180.902 160.179 180.839C160.11 180.777 160.071 180.692 160.071 180.603C160.071 180.514 160.11 180.429 160.179 180.366C160.248 180.303 160.342 180.268 160.44 180.268H231.631C231.729 180.268 231.823 180.303 231.892 180.366C231.961 180.429 232 180.514 232 180.603C232 180.692 231.961 180.777 231.892 180.839C231.823 180.902 231.729 180.938 231.631 180.938Z" fill="#3F3D56"/>
<path d="M212.28 80.0463C212.122 79.9437 211.962 79.8429 211.798 79.7439C210.929 79.219 209.987 78.7999 208.997 78.4974V76.3372H201.988V78.3414C199.665 78.923 197.581 80.1115 195.996 81.7592C194.412 83.4069 193.396 85.4411 193.075 87.6086L188.303 119.759C188.272 119.96 188.287 120.164 188.346 120.36C188.405 120.556 188.507 120.739 188.646 120.897C188.782 121.055 188.952 121.186 189.146 121.282C189.34 121.378 189.553 121.438 189.773 121.457C191.426 121.607 194.856 122.188 199.245 124.401C201.356 125.462 203.732 126.013 206.145 126C208.061 125.993 209.961 125.686 211.761 125.092C212.067 124.99 212.332 124.808 212.523 124.57C212.715 124.331 212.824 124.046 212.838 123.752C213.009 120.292 214.015 102.482 216.941 91.6187C217.51 89.4877 217.371 87.2515 216.541 85.1921C215.712 83.1327 214.229 81.3422 212.28 80.0463Z" fill="#3F3D56"/>
</g>
<defs>
<clipPath id="clip0_20_1354">
<rect width="232" height="181" fill="white"/>
</clipPath>
</defs>
</svg>
