<svg width="202" height="202" viewBox="0 0 202 202" fill="none" xmlns="http://www.w3.org/2000/svg">
<path d="M147.529 100.241V183.775C147.529 186.706 146.365 189.517 144.292 191.59C142.219 193.663 139.408 194.827 136.476 194.827H71.5417C68.6103 194.827 65.799 193.663 63.7262 191.59C61.6534 189.517 60.4889 186.706 60.4889 183.775V18.0117C60.4893 15.0805 61.654 12.2694 63.7267 10.1967C65.7994 8.124 68.6104 6.95937 71.5417 6.95892H136.476C139.407 6.95937 142.219 8.124 144.291 10.1967C146.364 12.2694 147.529 15.0805 147.529 18.0117V100.241Z" fill="white"/>
<path d="M123.068 2.5957H84.9477C83.4863 2.5957 82.3015 3.78045 82.3015 5.2419V10.7885C82.3015 12.2499 83.4863 13.4347 84.9477 13.4347H123.068C124.53 13.4347 125.715 12.2499 125.715 10.7885V5.2419C125.715 3.78045 124.53 2.5957 123.068 2.5957Z" fill="#F3F3F3"/>
<path d="M136.81 1.01001H71.205C66.9628 1.01269 62.8953 2.69976 59.8966 5.70039C56.8978 8.70101 55.2133 12.7696 55.2133 17.0118V184.766C55.2133 189.008 56.8978 193.077 59.8966 196.077C62.8953 199.078 66.9628 200.765 71.205 200.768H136.81C141.053 200.768 145.124 199.082 148.125 196.081C151.125 193.08 152.811 189.01 152.811 184.766V17.0118C152.811 12.7678 151.125 8.69773 148.125 5.69682C145.124 2.69591 141.053 1.01001 136.81 1.01001ZM147.529 100.241V183.775C147.529 186.706 146.365 189.517 144.292 191.59C142.219 193.663 139.408 194.827 136.476 194.827H71.5417C68.6103 194.827 65.799 193.663 63.7262 191.59C61.6534 189.517 60.4889 186.706 60.4889 183.775V18.0117C60.4893 15.0804 61.654 12.2694 63.7267 10.1967C65.7994 8.12398 68.6104 6.95936 71.5417 6.95891H136.476C139.407 6.95936 142.219 8.12398 144.291 10.1967C146.364 12.2694 147.529 15.0804 147.529 18.0117V100.241Z" fill="#F3F3F3"/>
<path d="M139.69 25.1339H68.3282V60.0798H139.69V25.1339Z" fill="#F3F3F3"/>
<path d="M167.525 88.4777H72.321V91.7652H167.525V88.4777Z" fill="#F3F3F3"/>
<path d="M167.525 97.1233H72.321V100.411H167.525V97.1233Z" fill="#F3F3F3"/>
<path d="M167.525 105.767H72.321V109.055H167.525V105.767Z" fill="#F3F3F3"/>
<path d="M167.525 114.413H72.321V117.7H167.525V114.413Z" fill="#F3F3F3"/>
<path d="M167.525 123.058H72.321V126.346H167.525V123.058Z" fill="#F3F3F3"/>
<path d="M167.525 131.704H72.321V134.992H167.525V131.704Z" fill="#F3F3F3"/>
<path d="M167.525 140.35H72.321V143.637H167.525V140.35Z" fill="#F3F3F3"/>
<path d="M167.525 148.995H72.321V152.283H167.525V148.995Z" fill="#F3F3F3"/>
<path d="M157.26 163.99H91.0246V167.278H157.26V163.99Z" fill="#F3F3F3"/>
<path d="M164.043 170.902H91.0246V174.19H164.043V170.902Z" fill="#F3F3F3"/>
<path d="M78.6622 79.6099H67.9124V83.0237H78.6622V79.6099Z" fill="#F3F3F3"/>
<path d="M92.0682 79.6099H81.3185V83.0237H92.0682V79.6099Z" fill="#F3F3F3"/>
<path d="M106.375 79.6099H95.6251V83.0237H106.375V79.6099Z" fill="#F3F3F3"/>
<path d="M80.0711 175.782C84.0176 175.782 87.2169 172.583 87.2169 168.636C87.2169 164.69 84.0176 161.491 80.0711 161.491C76.1246 161.491 72.9254 164.69 72.9254 168.636C72.9254 172.583 76.1246 175.782 80.0711 175.782Z" fill="#F3F3F3"/>
<path d="M160.849 66.4277H72.321V73.4456H160.849V66.4277Z" fill="#E2E2E2"/>
<path d="M57.8548 179.45L54.1111 184.449L58.5709 187.789L62.3146 182.79L57.8548 179.45Z" fill="#DE8E68"/>
<path d="M50.3216 190.063H43.5226V194.492H50.3216V190.063Z" fill="#DE8E68"/>
<path d="M29.5492 105.951C29.5492 105.951 15.8116 152.865 15.8116 153.816C15.8116 154.767 54.1545 186.101 54.8649 186.101C55.5753 186.101 58.5261 180.378 58.5261 179.383C58.5261 178.388 49.3991 170.858 49.3991 170.858L29.5492 105.951Z" fill="#56CAD8"/>
<path d="M50.5959 190.161L54.8598 105.181C52.8567 106.619 42.5412 109.558 29.5492 105.951C30.4515 113.411 43.1842 190.622 43.1842 190.622H50.5539L50.5959 190.161Z" fill="#74D5DE"/>
<path d="M28.8187 80.6569C27.1 79.716 8.85096 67.6448 5.86473 67.6448C2.8785 67.6448 3.12426 69.4055 3.12426 69.9375C3.12426 70.4694 3.49123 73.9876 11.8389 76.1557C12.5745 77.0563 24.7669 89.412 28.4079 90.8849C28.4483 86.9981 28.8187 80.6569 28.8187 80.6569Z" fill="#DE8E68"/>
<path d="M43.0041 43.6169C20.3481 43.6169 28.3052 104.208 29.5492 105.951C30.7932 107.693 53.9071 108.883 55.3278 104.458C56.2688 101.529 61.105 43.6169 43.0041 43.6169Z" fill="#FED385"/>
<path d="M10.2868 73.4439L0.356865 66.9698L5.78561 63.9684L15.4715 70.0637L10.2868 73.4439Z" fill="#333333"/>
<path d="M44.8171 68.9493C44.775 70.6327 46.2159 82.0507 48.2881 87.5384C47.5037 91.5784 43.1927 114.191 43.1927 114.191L46.2227 118.109C46.2227 118.109 57.3091 94.5663 57.8696 90.8848C58.4302 87.2034 57.0852 68.9493 56.8596 68.0538C56.6341 67.1583 44.8171 68.9493 44.8171 68.9493Z" fill="#DE8E68"/>
<path d="M50.2509 49.3773C57.0128 49.2291 58.915 67.1987 57.7754 68.7945C56.6357 70.3903 44.5898 71.6074 43.2213 70.0873C41.8527 68.5673 43.0933 49.5338 50.2509 49.3773Z" fill="#FED892"/>
<path d="M45.0881 34.7676H37.5585V46.598C37.5585 48.113 45.0881 48.0238 45.0881 46.598V34.7676Z" fill="#D37C59"/>
<path d="M46.6337 29.6481C47.0168 22.9225 44.1559 17.2897 40.2436 17.0669C36.3313 16.8441 32.8493 22.1155 32.4662 28.8411C32.0831 35.5667 34.9441 41.1994 38.8563 41.4223C42.7686 41.6451 46.2507 36.3736 46.6337 29.6481Z" fill="#DE8E68"/>
<path d="M24.745 25.5867C24.745 24.4083 25.4183 23.0617 25.4183 21.715C25.4183 20.5367 24.9133 19.19 24.9133 17.5067C24.9133 14.645 27.775 13.2983 29.29 13.2983C32.1517 13.2983 32.825 15.3183 37.37 15.3183C40.0633 15.3183 41.2417 14.645 42.7567 14.645C47.47 14.645 48.1433 20.5367 48.1433 21.21C48.1433 24.0717 52.015 24.24 52.015 27.27C52.015 30.1317 48.985 33.4983 46.6283 33.4983C44.2717 33.4983 42.0833 31.31 42.0833 30.6367C42.0833 29.1217 42.42 28.785 42.42 27.775C42.42 24.24 34.7171 23.3983 33.5387 23.3983C32.9439 25.1952 32.5906 27.0633 32.4883 28.9533C32.1517 29.1217 30.9733 29.4583 29.795 29.4583C28.9533 29.4583 24.745 28.4483 24.745 25.5867Z" fill="#FD8369"/>
<path d="M45.3658 35.6867C46.342 35.6867 47.1333 34.8953 47.1333 33.9192C47.1333 32.943 46.342 32.1517 45.3658 32.1517C44.3897 32.1517 43.5983 32.943 43.5983 33.9192C43.5983 34.8953 44.3897 35.6867 45.3658 35.6867Z" fill="#DE8E68"/>
<path d="M50.4613 193.991H43.2347L31.6231 198.578V200.323H50.4613V193.991Z" fill="black"/>
<path d="M62.0191 182.421L58.0397 187.734L55.0181 198.797L56.3008 199.758L66.6735 185.907L62.0191 182.421Z" fill="black"/>
<path d="M121.564 118.86C120.495 118.86 119.993 121.596 119.993 123.86C120.005 130.692 120.633 137.509 121.87 144.228C122.101 144.228 122.335 144.213 122.572 144.213C125.79 144.213 128.4 145.117 128.4 146.233C128.4 147.349 125.844 148.233 122.676 148.253C122.725 148.475 122.772 148.696 122.823 148.916C125.925 148.962 128.403 149.847 128.403 150.936C128.403 151.907 126.422 152.719 123.784 152.911C129.482 174.993 140.377 192.424 147.724 200.549H157.264V192.506C157.26 178.482 133.111 118.86 121.564 118.86Z" fill="#56CAD8"/>
<path d="M194.721 142.297C188.41 142.297 187.739 149.068 183.468 149.068C181.82 149.068 181.364 147.329 181.364 145.682C181.364 142.876 185.897 132.46 186.278 125.77C185.833 125.852 185.383 125.892 184.931 125.891C181.945 125.891 179.522 124.156 179.522 122.02C179.522 119.884 181.945 118.148 184.931 118.148C185.066 118.148 185.199 118.148 185.33 118.16C183.901 113.233 180.558 108.09 173.21 108.09C161.134 108.09 157.839 129.499 156.01 138.19C154.877 143.577 142.824 162.893 142.824 177.189C142.824 189.791 146.696 200.539 147.706 200.539H159.848C159.848 196.667 167.377 189.515 169.168 187.557C181.561 174.011 201.993 167.85 201.993 152.005C202 148.519 201.116 142.297 194.721 142.297Z" fill="#74D5DE"/>
</svg>
