<svg width="302" height="223" viewBox="0 0 302 223" fill="none" xmlns="http://www.w3.org/2000/svg">
<path d="M301 1H1V222.38H301V1Z" stroke="black" stroke-miterlimit="10"/>
<path d="M1 12.7695H301" stroke="black" stroke-miterlimit="10"/>
<path d="M204.841 32.4885H23.6743V133.636H204.841V32.4885Z" fill="#F2F2F2"/>
<path d="M27.7568 149.813H165.566" stroke="black" stroke-miterlimit="10"/>
<path d="M27.7568 165.08H165.566" stroke="black" stroke-miterlimit="10"/>
<path d="M27.7568 180.35H165.566" stroke="black" stroke-miterlimit="10"/>
<path d="M27.7568 195.618H165.566" stroke="black" stroke-miterlimit="10"/>
<path d="M7.52061 9.90681C8.93 9.90681 10.0725 8.62519 10.0725 7.04422C10.0725 5.46326 8.93 4.18164 7.52061 4.18164C6.11122 4.18164 4.96869 5.46326 4.96869 7.04422C4.96869 8.62519 6.11122 9.90681 7.52061 9.90681Z" fill="#AB8DE5"/>
<path d="M16.3115 9.90681C17.7209 9.90681 18.8634 8.62519 18.8634 7.04422C18.8634 5.46326 17.7209 4.18164 16.3115 4.18164C14.9021 4.18164 13.7596 5.46326 13.7596 7.04422C13.7596 8.62519 14.9021 9.90681 16.3115 9.90681Z" fill="#73E5E2"/>
<path d="M25.1024 9.90681C26.5118 9.90681 27.6543 8.62519 27.6543 7.04422C27.6543 5.46326 26.5118 4.18164 25.1024 4.18164C23.693 4.18164 22.5505 5.46326 22.5505 7.04422C22.5505 8.62519 23.693 9.90681 25.1024 9.90681Z" fill="#50B89D"/>
<path d="M128.479 82.9682L101.117 65.2469V100.689L128.479 82.9682Z" fill="#AF92FC"/>
<path d="M291.327 32.4246H214.798V80.2939H291.327V32.4246Z" fill="#F2F2F2"/>
<path d="M291.327 93.6972H214.798V141.567H291.327V93.6972Z" fill="#F2F2F2"/>
<path d="M291.327 154.97H214.798V202.839H291.327V154.97Z" fill="#F2F2F2"/>
</svg>
